# xmcd
#
# Track frame offsets: 
#        150
#        22034
#        39448
#        58411
#        74119
#        91691
#        106905
#        123135
#        140229
#        155368
#
# Disc length: 2268 seconds
#
# Revision: 0
# Processed by: cddbd v1.5.2PL0 Copyright (c) Steve Scherf et al.
# Submitted via: ExactAudioCopy v0.99pb4
#
DISCID=8c08da0a
DTITLE=Texas - The BBC Sessions [CD2]
DYEAR=2007
DGENRE=Pop/Rock
TTITLE0=Insane
TTITLE1=Say What You Want
TTITLE2=You're All I Need To Get By
TTITLE3=Black Eyed Boy
TTITLE4=Halo
TTITLE5=Tell Me The Answer
TTITLE6=In Our Lifetime
TTITLE7=Carnival Girl
TTITLE8=Say What You Want
TTITLE9=I'll See It Through
EXTD=
EXTT0=
EXTT1=
EXTT2=
EXTT3=
EXTT4=
EXTT5=
EXTT6=
EXTT7=
EXTT8=
EXTT9=
PLAYORDER=
